<svg width="22" height="22" viewBox="0 0 22 22" fill="none" xmlns="http://www.w3.org/2000/svg">
<path d="M20.2116 0.0636082L6.46293 4.12396C6.18384 4.21163 5.93999 4.38604 5.76682 4.62182C5.59364 4.8576 5.50018 5.14247 5.5 5.43501V16.6681C5.04975 16.5588 4.58832 16.5023 4.125 16.4997C1.84766 16.4997 0 17.7312 0 19.2498C0 20.7684 1.84766 22 4.125 22C6.40234 22 8.25 20.7684 8.25 19.2498V9.20832L19.25 5.98548V13.9184C18.7998 13.8087 18.3383 13.7521 17.875 13.7495C15.5977 13.7495 13.75 14.9811 13.75 16.4997C13.75 18.0183 15.5977 19.2498 17.875 19.2498C20.1523 19.2498 22 18.0187 22 16.4997V1.3738C21.9998 1.15793 21.9488 0.945141 21.8511 0.752652C21.7534 0.560163 21.6117 0.393383 21.4376 0.265811C21.2635 0.138238 21.0617 0.053457 20.8488 0.0183287C20.6358 -0.0167995 20.4175 -0.00128788 20.2116 0.0636082Z" fill="white"/>
</svg>
