<svg width="92" height="92" viewBox="0 0 92 92" fill="none" xmlns="http://www.w3.org/2000/svg">
<path d="M46 0C20.7 0 0 20.7 0 46C0 71.3 20.6 92 46 92C71.4 92 92 71.4 92 46C92 20.6 71.4 0 46 0ZM67.6 67.5C67.6 67.5 67.6 67.6 67.5 67.6C66.7 68.8 65.5 69.4 64.3 69.4C63.6 69.4 62.9 69.2 62.3 68.8C52.1 62.5 39 61.1 23.5 64.7C21.4 65.3 19.5 63.8 19 62C18.4 59.7 19.9 57.9 21.7 57.4C39.4 53.4 54.3 55.1 66.1 62.4C67 62.8 67.6 63.4 67.9 64.3C68.2 65.3 68.1 66.5 67.6 67.5ZM72.9 55.3C72.1 56.4 71 57.2 69.7 57.4C69.5 57.4 69.2 57.5 69 57.5C68.2 57.5 67.4 57.2 66.7 56.8C54.7 49.5 36.6 47.4 22.8 51.8C20.3 52.4 17.8 51.1 17.2 48.8C16.6 46.3 17.9 43.9 20.2 43.3C36.7 38.3 57.4 40.8 71.6 49.5C72.4 49.9 73.1 50.8 73.4 52C73.9 53 73.6 54.3 72.9 55.3ZM79.2 41.6C78.2 43 76.5 43.7 74.8 43.7C73.9 43.7 72.9 43.5 72.1 43C58.2 34.7 34.3 33.7 20.7 37.9C18 38.7 15.2 37.2 14.3 34.6C13.5 31.9 15 29 17.6 28.2C33.8 23.4 60.6 24.4 77.4 34.4C79.8 35.6 80.7 38.9 79.2 41.6C79.3 41.5 79.3 41.5 79.2 41.6Z" fill="white"/>
</svg>
