<svg width="512" height="512" viewBox="0 0 512 512" fill="none" xmlns="http://www.w3.org/2000/svg">
<path fill-rule="evenodd" clip-rule="evenodd" d="M449.446 0C483.971 0 512 28.03 512 62.554V449.446C512 483.97 483.97 512 449.446 512H62.554C28.03 512 0 483.97 0 449.446V62.554C0 28.03 28.029 0 62.554 0L449.446 0ZM428.479 175.63C424.34 160.141 412.142 147.943 396.653 143.804C368.575 136.28 256 136.28 256 136.28C256 136.28 143.425 136.28 115.347 143.804C99.861 147.943 87.661 160.141 83.521 175.63C76 203.705 76 262.282 76 262.282C76 262.282 76 320.858 83.521 348.93C87.661 364.419 99.861 376.62 115.347 380.759C143.425 388.28 256 388.28 256 388.28C256 388.28 368.575 388.28 396.653 380.759C412.142 376.62 424.34 364.419 428.479 348.93C436 320.858 436 262.282 436 262.282C436 262.282 436 203.705 428.479 175.63ZM219.998 316.283V208.281L313.528 262.282L219.998 316.283Z" fill="white"/>
</svg>
